<?xml version="1.0" encoding="UTF-8" standalone="no"?>
<!DOCTYPE svg PUBLIC "-//W3C//DTD SVG 1.1//EN"
 "http://www.w3.org/Graphics/SVG/1.1/DTD/svg11.dtd">
<!-- Generated by graphviz version 14.1.0 (20251206.1807)
 -->
<!-- Title: G Pages: 1 -->
<svg width="1576pt" height="524pt"
 viewBox="0.00 0.00 1576.00 524.00" xmlns="http://www.w3.org/2000/svg" xmlns:xlink="http://www.w3.org/1999/xlink">
<g id="graph0" class="graph" transform="scale(1 1) rotate(0) translate(10.8 513.56)">
<title>G</title>
<polygon fill="white" stroke="none" points="-10.8,10.8 -10.8,-513.56 1565.59,-513.56 1565.59,10.8 -10.8,10.8"/>
<g id="clust1" class="cluster">
<title>cluster_l1</title>
<polygon fill="none" stroke="#111827" points="8,-67.76 8,-494.76 415.84,-494.76 415.84,-67.76 8,-67.76"/>
<text xml:space="preserve" text-anchor="middle" x="68.12" y="-479.36" font-family="Arial" font-size="12.00">Entradas do projeto</text>
<text xml:space="preserve" text-anchor="middle" x="68.12" y="-465.11" font-family="Arial" font-size="12.00">/ qualificação</text>
</g>
<g id="clust2" class="cluster">
<title>cluster_l2</title>
<polygon fill="none" stroke="#111827" points="477.98,-220.76 477.98,-354.76 1066.1,-354.76 1066.1,-220.76 477.98,-220.76"/>
<text xml:space="preserve" text-anchor="middle" x="536.23" y="-339.36" font-family="Arial" font-size="12.00">Regras de decisão</text>
</g>
<g id="clust3" class="cluster">
<title>cluster_l3</title>
<polygon fill="none" stroke="#111827" points="1097.1,-181.76 1097.1,-427.76 1288.63,-427.76 1288.63,-181.76 1097.1,-181.76"/>
<text xml:space="preserve" text-anchor="middle" x="1173.35" y="-412.36" font-family="Arial" font-size="12.00">Tratamento recomendado</text>
</g>
<g id="clust4" class="cluster">
<title>cluster_l4</title>
<polygon fill="none" stroke="#111827" points="1328.26,-197.76 1328.26,-419.76 1546.79,-419.76 1546.79,-197.76 1328.26,-197.76"/>
<text xml:space="preserve" text-anchor="middle" x="1411.26" y="-404.36" font-family="Arial" font-size="12.00">Recomendação por objetivo</text>
</g>
<!-- q0 -->
<g id="node1" class="node">
<title>q0</title>
<path fill="#ffffff" stroke="#111827" d="M184.95,-449.96C184.95,-449.96 65.03,-449.96 65.03,-449.96 59.03,-449.96 51.18,-444.25 49.33,-438.54 49.33,-438.54 19.7,-346.98 19.7,-346.98 17.85,-341.27 22,-335.56 28,-335.56 28,-335.56 147.93,-335.56 147.93,-335.56 153.93,-335.56 161.78,-341.27 163.62,-346.98 163.62,-346.98 193.26,-438.54 193.26,-438.54 195.11,-444.25 190.95,-449.96 184.95,-449.96"/>
<text xml:space="preserve" text-anchor="start" x="68.6" y="-409.26" font-family="Arial" font-weight="bold" font-size="10.00" fill="#111827">Ensaios rápidos</text>
<text xml:space="preserve" text-anchor="start" x="73.1" y="-399.26" font-family="Arial" font-size="10.00" fill="#111827">(L/C, IC, FTIR;</text>
<text xml:space="preserve" text-anchor="start" x="82.48" y="-389.26" font-family="Arial" font-size="10.00" fill="#111827">DRX/TGA)</text>
<text xml:space="preserve" text-anchor="start" x="72.35" y="-379.26" font-family="Arial" font-size="10.00" fill="#111827">→ estimar VUF</text>
<text xml:space="preserve" text-anchor="start" x="94.85" y="-369.26" font-family="Arial" font-size="10.00" fill="#111827">(P10)</text>
</g>
<!-- i1 -->
<g id="node2" class="node">
<title>i1</title>
<path fill="#ffffff" stroke="#111827" d="M395.84,-422.96C395.84,-422.96 314.26,-422.96 314.26,-422.96 308.26,-422.96 300.46,-417.24 298.66,-411.51 298.66,-411.51 278.7,-348.01 278.7,-348.01 276.9,-342.28 281.1,-336.56 287.1,-336.56 287.1,-336.56 368.68,-336.56 368.68,-336.56 374.68,-336.56 382.48,-342.28 384.28,-348.01 384.28,-348.01 404.24,-411.51 404.24,-411.51 406.04,-417.24 401.84,-422.96 395.84,-422.96"/>
<text xml:space="preserve" text-anchor="start" x="323.84" y="-388.26" font-family="Arial" font-size="10.00" fill="#111827">Vida útil</text>
<text xml:space="preserve" text-anchor="start" x="332.47" y="-376.26" font-family="Arial" font-size="10.00" fill="#111827">alvo</text>
<text xml:space="preserve" text-anchor="start" x="315.22" y="-364.26" font-family="Arial" font-size="10.00" fill="#111827">(VUF / P10)</text>
</g>
<!-- q0&#45;&gt;i1 -->
<g id="edge1" class="edge">
<title>q0&#45;&gt;i1</title>
<path fill="none" stroke="#374151" d="M174.45,-379.76C174.45,-379.76 278.69,-379.76 278.69,-379.76"/>
<polygon fill="#374151" stroke="#374151" points="278.69,-382.56 286.69,-379.76 278.69,-376.96 278.69,-382.56"/>
</g>
<!-- d1 -->
<g id="node5" class="node">
<title>d1</title>
<polygon fill="#ffffff" stroke="#111827" points="591.76,-324.28 485.98,-276.76 591.76,-229.24 697.54,-276.76 591.76,-324.28"/>
<text xml:space="preserve" text-anchor="start" x="547.51" y="-284.36" font-family="Arial" font-weight="bold" font-size="12.00" fill="#111827">Uso temporário</text>
<text xml:space="preserve" text-anchor="start" x="549.76" y="-272.36" font-family="Arial" font-size="12.00" fill="#111827">(VUF ≤ 60 dias)</text>
<text xml:space="preserve" text-anchor="start" x="559.51" y="-260.36" font-family="Arial" font-size="12.00" fill="#111827">E UV ≤ 0,5?</text>
</g>
<!-- i1&#45;&gt;d1 -->
<g id="edge2" class="edge">
<title>i1&#45;&gt;d1</title>
<path fill="none" stroke="#374151" d="M341.41,-336.34C341.41,-324.14 341.41,-314.12 341.41,-314.12 341.41,-314.12 558.7,-314.12 558.7,-314.12"/>
<polygon fill="#374151" stroke="#374151" points="558.7,-316.92 566.7,-314.12 558.7,-311.32 558.7,-316.92"/>
</g>
<!-- i2 -->
<g id="node3" class="node">
<title>i2</title>
<path fill="#ffffff" stroke="#111827" d="M170.18,-303.96C170.18,-303.96 73.75,-303.96 73.75,-303.96 67.75,-303.96 60.13,-298.18 58.51,-292.41 58.51,-292.41 34.02,-205.11 34.02,-205.11 32.39,-199.34 36.77,-193.56 42.77,-193.56 42.77,-193.56 139.2,-193.56 139.2,-193.56 145.2,-193.56 152.82,-199.34 154.44,-205.11 154.44,-205.11 178.94,-292.41 178.94,-292.41 180.56,-298.18 176.18,-303.96 170.18,-303.96"/>
<text xml:space="preserve" text-anchor="start" x="75.73" y="-263.26" font-family="Arial" font-size="10.00" fill="#111827">Agressividade</text>
<text xml:space="preserve" text-anchor="start" x="85.48" y="-251.26" font-family="Arial" font-size="10.00" fill="#111827">ambiental</text>
<text xml:space="preserve" text-anchor="start" x="81.35" y="-239.26" font-family="Arial" font-size="10.00" fill="#111827">(UV: 0 / 0,5</text>
<text xml:space="preserve" text-anchor="start" x="95.23" y="-227.26" font-family="Arial" font-size="10.00" fill="#111827">/ 1,0)</text>
</g>
<!-- i2&#45;&gt;d1 -->
<g id="edge3" class="edge">
<title>i2&#45;&gt;d1</title>
<path fill="none" stroke="#374151" stroke-dasharray="5,2" d="M172.18,-266.6C259.05,-266.6 412.24,-266.6 507.53,-266.6"/>
</g>
<!-- d2 -->
<g id="node6" class="node">
<title>d2</title>
<polygon fill="#ffffff" stroke="#111827" points="901.32,-324.28 744.54,-276.76 901.32,-229.24 1058.1,-276.76 901.32,-324.28"/>
<text xml:space="preserve" text-anchor="start" x="831.57" y="-284.36" font-family="Arial" font-weight="bold" font-size="12.00" fill="#111827">UV ≥ 1,0 (exposição alta)</text>
<text xml:space="preserve" text-anchor="start" x="845.45" y="-272.36" font-family="Arial" font-size="12.00" fill="#111827">OU exige ductilidade</text>
<text xml:space="preserve" text-anchor="start" x="857.07" y="-260.36" font-family="Arial" font-size="12.00" fill="#111827">(ε_max ≥ 2,0%)?</text>
</g>
<!-- i2&#45;&gt;d2 -->
<g id="edge6" class="edge">
<title>i2&#45;&gt;d2</title>
<path fill="none" stroke="#374151" stroke-dasharray="5,2" d="M158.18,-217.35C342.06,-217.35 953.41,-217.35 953.41,-217.35 953.41,-217.35 953.41,-230.62 953.41,-244.62"/>
</g>
<!-- n1 -->
<g id="node13" class="node">
<title>n1</title>
<polygon fill="#ffffff" stroke="#111827" points="432.98,-59.52 243.95,-59.52 243.95,0 438.98,0 438.98,-53.52 432.98,-59.52"/>
<polyline fill="none" stroke="#111827" points="432.98,-59.52 432.98,-53.52"/>
<polyline fill="none" stroke="#111827" points="438.98,-53.52 432.98,-53.52"/>
<text xml:space="preserve" text-anchor="start" x="290.84" y="-43.36" font-family="Arial" font-weight="bold" font-size="12.00" fill="#111827">Atenção: UV = 1,0</text>
<text xml:space="preserve" text-anchor="start" x="273.59" y="-31.36" font-family="Arial" font-size="12.00" fill="#111827">→ erro pode atingir ~28%</text>
<text xml:space="preserve" text-anchor="start" x="252.59" y="-19.36" font-family="Arial" font-size="12.00" fill="#111827">→ considerar correção não&#45;linear</text>
<text xml:space="preserve" text-anchor="start" x="298.34" y="-7.36" font-family="Arial" font-size="12.00" fill="#111827">/ validação local</text>
</g>
<!-- i2&#45;&gt;n1 -->
<g id="edge13" class="edge">
<title>i2&#45;&gt;n1</title>
<path fill="none" stroke="#374151" stroke-dasharray="5,2" d="M154.87,-205.45C199.67,-205.45 259.41,-205.45 259.41,-205.45 259.41,-205.45 259.41,-110.2 259.41,-59.96"/>
</g>
<!-- i3 -->
<g id="node4" class="node">
<title>i3</title>
<path fill="#ffffff" stroke="#111827" d="M156.96,-161.96C156.96,-161.96 81.56,-161.96 81.56,-161.96 75.56,-161.96 67.86,-156.21 66.16,-150.45 66.16,-150.45 47.4,-87.07 47.4,-87.07 45.7,-81.31 49.99,-75.56 55.99,-75.56 55.99,-75.56 131.39,-75.56 131.39,-75.56 137.39,-75.56 145.09,-81.31 146.8,-87.07 146.8,-87.07 165.56,-150.45 165.56,-150.45 167.26,-156.21 162.96,-161.96 156.96,-161.96"/>
<text xml:space="preserve" text-anchor="start" x="82.1" y="-127.26" font-family="Arial" font-size="10.00" fill="#111827">Ductilidade</text>
<text xml:space="preserve" text-anchor="start" x="90.35" y="-115.26" font-family="Arial" font-size="10.00" fill="#111827">mínima</text>
<text xml:space="preserve" text-anchor="start" x="89.23" y="-103.26" font-family="Arial" font-size="10.00" fill="#111827">(ε_max)</text>
</g>
<!-- i3&#45;&gt;d2 -->
<g id="edge7" class="edge">
<title>i3&#45;&gt;d2</title>
<path fill="none" stroke="#374151" stroke-dasharray="5,2" d="M164.16,-143.98C338.71,-143.98 849.41,-143.98 849.41,-143.98 849.41,-143.98 849.41,-205.32 849.41,-244.62"/>
</g>
<!-- d1&#45;&gt;d2 -->
<g id="edge5" class="edge">
<title>d1&#45;&gt;d2</title>
<path fill="none" stroke="#374151" d="M698.73,-276.76C698.73,-276.76 733.47,-276.76 733.47,-276.76"/>
<polygon fill="#374151" stroke="#374151" points="733.47,-279.56 741.47,-276.76 733.47,-273.96 733.47,-279.56"/>
<text xml:space="preserve" text-anchor="middle" x="726.22" y="-266.31" font-family="Arial" font-size="11.00" fill="#374151">Não</text>
</g>
<!-- t0 -->
<g id="node7" class="node">
<title>t0</title>
<path fill="#ffffff" stroke="#111827" d="M1252.13,-397.52C1252.13,-397.52 1133.6,-397.52 1133.6,-397.52 1127.6,-397.52 1121.6,-391.52 1121.6,-385.52 1121.6,-385.52 1121.6,-362 1121.6,-362 1121.6,-356 1127.6,-350 1133.6,-350 1133.6,-350 1252.13,-350 1252.13,-350 1258.13,-350 1264.13,-356 1264.13,-362 1264.13,-362 1264.13,-385.52 1264.13,-385.52 1264.13,-391.52 1258.13,-397.52 1252.13,-397.52"/>
<text xml:space="preserve" text-anchor="start" x="1156.12" y="-381.36" font-family="Arial" font-weight="bold" font-size="12.00" fill="#111827">T0 — Natural</text>
<text xml:space="preserve" text-anchor="start" x="1130.24" y="-369.36" font-family="Arial" font-size="12.00" fill="#111827">Aplicações temporárias</text>
<text xml:space="preserve" text-anchor="start" x="1159.49" y="-357.36" font-family="Arial" font-size="12.00" fill="#111827">(30–60 dias)</text>
</g>
<!-- d1&#45;&gt;t0 -->
<g id="edge4" class="edge">
<title>d1&#45;&gt;t0</title>
<path fill="none" stroke="#374151" d="M591.41,-324.41C591.41,-348.94 591.41,-373.76 591.41,-373.76 591.41,-373.76 1111.7,-373.76 1111.7,-373.76"/>
<polygon fill="#374151" stroke="#374151" points="1111.7,-376.56 1119.7,-373.76 1111.7,-370.96 1111.7,-376.56"/>
<text xml:space="preserve" text-anchor="middle" x="817.51" y="-363.31" font-family="Arial" font-size="11.00" fill="#374151">Sim</text>
</g>
<!-- t2 -->
<g id="node8" class="node">
<title>t2</title>
<path fill="#ffffff" stroke="#111827" stroke-width="3" d="M1268.63,-237.52C1268.63,-237.52 1117.1,-237.52 1117.1,-237.52 1111.1,-237.52 1105.1,-231.52 1105.1,-225.52 1105.1,-225.52 1105.1,-202 1105.1,-202 1105.1,-196 1111.1,-190 1117.1,-190 1117.1,-190 1268.63,-190 1268.63,-190 1274.63,-190 1280.63,-196 1280.63,-202 1280.63,-202 1280.63,-225.52 1280.63,-225.52 1280.63,-231.52 1274.63,-237.52 1268.63,-237.52"/>
<text xml:space="preserve" text-anchor="start" x="1149.74" y="-221.36" font-family="Arial" font-weight="bold" font-size="12.00" fill="#111827">T2 — NaOH 6%</text>
<text xml:space="preserve" text-anchor="start" x="1142.62" y="-209.36" font-family="Arial" font-size="12.00" fill="#111827">Ponto de equilíbrio</text>
<text xml:space="preserve" text-anchor="start" x="1113.74" y="-197.36" font-family="Arial" font-size="12.00" fill="#111827">(VUF ~95 dias; ε_max ~2,8%)</text>
</g>
<!-- d2&#45;&gt;t2 -->
<g id="edge8" class="edge">
<title>d2&#45;&gt;t2</title>
<path fill="none" stroke="#374151" d="M916.59,-233.38C916.59,-233.38 1094.14,-233.38 1094.14,-233.38"/>
<polygon fill="#374151" stroke="#374151" points="1094.14,-236.18 1102.14,-233.38 1094.14,-230.58 1094.14,-236.18"/>
<text xml:space="preserve" text-anchor="middle" x="995.99" y="-222.93" font-family="Arial" font-size="11.00" fill="#374151">Sim</text>
</g>
<!-- t3 -->
<g id="node9" class="node">
<title>t3</title>
<path fill="#ffffff" stroke="#111827" d="M1251.38,-317.52C1251.38,-317.52 1134.35,-317.52 1134.35,-317.52 1128.35,-317.52 1122.35,-311.52 1122.35,-305.52 1122.35,-305.52 1122.35,-282 1122.35,-282 1122.35,-276 1128.35,-270 1134.35,-270 1134.35,-270 1251.38,-270 1251.38,-270 1257.38,-270 1263.38,-276 1263.38,-282 1263.38,-282 1263.38,-305.52 1263.38,-305.52 1263.38,-311.52 1257.38,-317.52 1251.38,-317.52"/>
<text xml:space="preserve" text-anchor="start" x="1149.74" y="-301.36" font-family="Arial" font-weight="bold" font-size="12.00" fill="#111827">T3 — NaOH 9%</text>
<text xml:space="preserve" text-anchor="start" x="1142.99" y="-289.36" font-family="Arial" font-size="12.00" fill="#111827">Maior durabilidade</text>
<text xml:space="preserve" text-anchor="start" x="1130.99" y="-277.36" font-family="Arial" font-size="12.00" fill="#111827">(rigidez; ε_max &lt; 2,0%)</text>
</g>
<!-- d2&#45;&gt;t3 -->
<g id="edge9" class="edge">
<title>d2&#45;&gt;t3</title>
<path fill="none" stroke="#374151" d="M1003.7,-293.76C1003.7,-293.76 1112.36,-293.76 1112.36,-293.76"/>
<polygon fill="#374151" stroke="#374151" points="1112.36,-296.56 1120.36,-293.76 1112.36,-290.96 1112.36,-296.56"/>
<text xml:space="preserve" text-anchor="middle" x="1068.16" y="-283.31" font-family="Arial" font-size="11.00" fill="#374151">Não</text>
</g>
<!-- r0 -->
<g id="node10" class="node">
<title>r0</title>
<path fill="#ffffff" stroke="#111827" d="M1515.16,-389.77C1515.16,-389.77 1359.88,-389.77 1359.88,-389.77 1353.88,-389.77 1347.88,-383.77 1347.88,-377.77 1347.88,-377.77 1347.88,-361.75 1347.88,-361.75 1347.88,-355.75 1353.88,-349.75 1359.88,-349.75 1359.88,-349.75 1515.16,-349.75 1515.16,-349.75 1521.16,-349.75 1527.16,-355.75 1527.16,-361.75 1527.16,-361.75 1527.16,-377.77 1527.16,-377.77 1527.16,-383.77 1521.16,-389.77 1515.16,-389.77"/>
<text xml:space="preserve" text-anchor="start" x="1356.52" y="-372.61" font-family="Arial" font-size="12.00" fill="#111827">Controle de erosão temporário</text>
<text xml:space="preserve" text-anchor="start" x="1366.65" y="-358.36" font-family="Arial" font-size="12.00" fill="#111827">/ revegetação (30–60 dias)</text>
</g>
<!-- t0&#45;&gt;r0 -->
<g id="edge10" class="edge">
<title>t0&#45;&gt;r0</title>
<path fill="none" stroke="#374151" d="M1264.62,-369.88C1264.62,-369.88 1337.99,-369.88 1337.99,-369.88"/>
<polygon fill="#374151" stroke="#374151" points="1337.99,-372.69 1345.99,-369.89 1337.99,-367.09 1337.99,-372.69"/>
</g>
<!-- r2 -->
<g id="node11" class="node">
<title>r2</title>
<path fill="#ffffff" stroke="#111827" d="M1526.79,-245.77C1526.79,-245.77 1348.26,-245.77 1348.26,-245.77 1342.26,-245.77 1336.26,-239.77 1336.26,-233.77 1336.26,-233.77 1336.26,-217.75 1336.26,-217.75 1336.26,-211.75 1342.26,-205.75 1348.26,-205.75 1348.26,-205.75 1526.79,-205.75 1526.79,-205.75 1532.79,-205.75 1538.79,-211.75 1538.79,-217.75 1538.79,-217.75 1538.79,-233.77 1538.79,-233.77 1538.79,-239.77 1532.79,-245.77 1526.79,-245.77"/>
<text xml:space="preserve" text-anchor="start" x="1344.9" y="-228.61" font-family="Arial" font-size="12.00" fill="#111827">Bioengenharia de taludes tropicais</text>
<text xml:space="preserve" text-anchor="start" x="1363.65" y="-214.36" font-family="Arial" font-size="12.00" fill="#111827">(necessita deformabilidade)</text>
</g>
<!-- t2&#45;&gt;r2 -->
<g id="edge11" class="edge">
<title>t2&#45;&gt;r2</title>
<path fill="none" stroke="#374151" d="M1281.89,-221.63C1281.89,-221.63 1326.62,-221.63 1326.62,-221.63"/>
<polygon fill="#374151" stroke="#374151" points="1326.62,-224.44 1334.62,-221.64 1326.62,-218.84 1326.62,-224.44"/>
</g>
<!-- s1 -->
<g id="node14" class="node">
<title>s1</title>
<polygon fill="#ffffff" stroke="#111827" points="1541.41,-173.52 1327.63,-173.52 1327.63,-126 1547.41,-126 1547.41,-167.52 1541.41,-173.52"/>
<polyline fill="none" stroke="#111827" points="1541.41,-173.52 1541.41,-167.52"/>
<polyline fill="none" stroke="#111827" points="1547.41,-167.52 1541.41,-167.52"/>
<text xml:space="preserve" text-anchor="start" x="1336.27" y="-157.36" font-family="Arial" font-weight="bold" font-size="12.00" fill="#111827">Critérios sugeridos (especificação):</text>
<text xml:space="preserve" text-anchor="start" x="1342.27" y="-145.36" font-family="Arial" font-size="12.00" fill="#111827">R0 ≥ 20 kN/m; VUF ≥ 90 dias (P10);</text>
<text xml:space="preserve" text-anchor="start" x="1341.15" y="-133.36" font-family="Arial" font-size="12.00" fill="#111827">IC ≥ 60%; fim de vida: ε_max ≤ 2,0%</text>
</g>
<!-- t2&#45;&gt;s1 -->
<g id="edge14" class="edge">
<title>t2&#45;&gt;s1</title>
<path fill="none" stroke="#374151" stroke-dasharray="5,2" d="M1282.04,-197.88C1309.38,-197.88 1332.41,-197.88 1332.41,-197.88 1332.41,-197.88 1332.41,-185.85 1332.41,-173.82"/>
</g>
<!-- r3 -->
<g id="node12" class="node">
<title>r3</title>
<path fill="#ffffff" stroke="#111827" d="M1500.91,-317.77C1500.91,-317.77 1374.13,-317.77 1374.13,-317.77 1368.13,-317.77 1362.13,-311.77 1362.13,-305.77 1362.13,-305.77 1362.13,-289.75 1362.13,-289.75 1362.13,-283.75 1368.13,-277.75 1374.13,-277.75 1374.13,-277.75 1500.91,-277.75 1500.91,-277.75 1506.91,-277.75 1512.91,-283.75 1512.91,-289.75 1512.91,-289.75 1512.91,-305.77 1512.91,-305.77 1512.91,-311.77 1506.91,-317.77 1500.91,-317.77"/>
<text xml:space="preserve" text-anchor="start" x="1370.77" y="-300.61" font-family="Arial" font-size="12.00" fill="#111827">Reforço/contensão rígida</text>
<text xml:space="preserve" text-anchor="start" x="1373.4" y="-286.36" font-family="Arial" font-size="12.00" fill="#111827">(deformação não crítica)</text>
</g>
<!-- t3&#45;&gt;r3 -->
<g id="edge12" class="edge">
<title>t3&#45;&gt;r3</title>
<path fill="none" stroke="#374151" d="M1263.63,-297.63C1263.63,-297.63 1352.28,-297.63 1352.28,-297.63"/>
<polygon fill="#374151" stroke="#374151" points="1352.28,-300.44 1360.28,-297.64 1352.28,-294.84 1352.28,-300.44"/>
</g>
</g>
</svg>
