<?xml version="1.0" encoding="UTF-8" standalone="no"?>
<!DOCTYPE svg PUBLIC "-//W3C//DTD SVG 1.1//EN"
 "http://www.w3.org/Graphics/SVG/1.1/DTD/svg11.dtd">
<!-- Generated by graphviz version 14.1.0 (20251206.1807)
 -->
<!-- Title: G Pages: 1 -->
<svg width="1555pt" height="524pt"
 viewBox="0.00 0.00 1555.00 524.00" xmlns="http://www.w3.org/2000/svg" xmlns:xlink="http://www.w3.org/1999/xlink">
<g id="graph0" class="graph" transform="scale(1 1) rotate(0) translate(10.8 513.56)">
<title>G</title>
<polygon fill="white" stroke="none" points="-10.8,10.8 -10.8,-513.56 1544.67,-513.56 1544.67,10.8 -10.8,10.8"/>
<g id="clust1" class="cluster">
<title>cluster_l1</title>
<polygon fill="none" stroke="#111827" points="8,-67.76 8,-494.76 415.15,-494.76 415.15,-67.76 8,-67.76"/>
<text xml:space="preserve" text-anchor="middle" x="52.38" y="-479.36" font-family="Arial" font-size="12.00">Project inputs</text>
<text xml:space="preserve" text-anchor="middle" x="52.38" y="-465.11" font-family="Arial" font-size="12.00">/ qualification</text>
</g>
<g id="clust2" class="cluster">
<title>cluster_l2</title>
<polygon fill="none" stroke="#111827" points="465.71,-220.76 465.71,-354.76 1050.83,-354.76 1050.83,-220.76 465.71,-220.76"/>
<text xml:space="preserve" text-anchor="middle" x="511.96" y="-339.36" font-family="Arial" font-size="12.00">Decision rules</text>
</g>
<g id="clust3" class="cluster">
<title>cluster_l3</title>
<polygon fill="none" stroke="#111827" points="1081.83,-181.76 1081.83,-427.76 1276.36,-427.76 1276.36,-181.76 1081.83,-181.76"/>
<text xml:space="preserve" text-anchor="middle" x="1156.95" y="-412.36" font-family="Arial" font-size="12.00">Recommended treatment</text>
</g>
<g id="clust4" class="cluster">
<title>cluster_l4</title>
<polygon fill="none" stroke="#111827" points="1315.36,-197.76 1315.36,-419.76 1531.61,-419.76 1531.61,-197.76 1315.36,-197.76"/>
<text xml:space="preserve" text-anchor="middle" x="1423.48" y="-404.36" font-family="Arial" font-size="12.00">Recommendation by project objective</text>
</g>
<!-- q0 -->
<g id="node1" class="node">
<title>q0</title>
<path fill="#ffffff" stroke="#111827" d="M177.18,-449.96C177.18,-449.96 63.43,-449.96 63.43,-449.96 57.43,-449.96 49.66,-444.23 47.88,-438.5 47.88,-438.5 19.55,-347.02 19.55,-347.02 17.78,-341.29 22,-335.56 28,-335.56 28,-335.56 141.74,-335.56 141.74,-335.56 147.74,-335.56 155.52,-341.29 157.3,-347.02 157.3,-347.02 185.63,-438.5 185.63,-438.5 187.4,-444.23 183.18,-449.96 177.18,-449.96"/>
<text xml:space="preserve" text-anchor="start" x="71.46" y="-409.26" font-family="Arial" font-weight="bold" font-size="10.00" fill="#111827">Rapid assays</text>
<text xml:space="preserve" text-anchor="start" x="69.21" y="-399.26" font-family="Arial" font-size="10.00" fill="#111827">(L/C, CI, FTIR;</text>
<text xml:space="preserve" text-anchor="start" x="78.59" y="-389.26" font-family="Arial" font-size="10.00" fill="#111827">XRD/TGA)</text>
<text xml:space="preserve" text-anchor="start" x="66.59" y="-379.26" font-family="Arial" font-size="10.00" fill="#111827">→ estimate FUL</text>
<text xml:space="preserve" text-anchor="start" x="90.96" y="-369.26" font-family="Arial" font-size="10.00" fill="#111827">(P10)</text>
</g>
<!-- i1 -->
<g id="node2" class="node">
<title>i1</title>
<path fill="#ffffff" stroke="#111827" d="M395.15,-422.96C395.15,-422.96 298.72,-422.96 298.72,-422.96 292.72,-422.96 284.7,-417.31 282.67,-411.66 282.67,-411.66 259.79,-347.86 259.79,-347.86 257.77,-342.21 261.74,-336.56 267.74,-336.56 267.74,-336.56 364.17,-336.56 364.17,-336.56 370.17,-336.56 378.19,-342.21 380.22,-347.86 380.22,-347.86 403.1,-411.66 403.1,-411.66 405.12,-417.31 401.15,-422.96 395.15,-422.96"/>
<text xml:space="preserve" text-anchor="start" x="300.69" y="-388.26" font-family="Arial" font-size="10.00" fill="#111827">Target service</text>
<text xml:space="preserve" text-anchor="start" x="325.07" y="-376.26" font-family="Arial" font-size="10.00" fill="#111827">life</text>
<text xml:space="preserve" text-anchor="start" x="305.94" y="-364.26" font-family="Arial" font-size="10.00" fill="#111827">(FUL / P10)</text>
</g>
<!-- q0&#45;&gt;i1 -->
<g id="edge1" class="edge">
<title>q0&#45;&gt;i1</title>
<path fill="none" stroke="#374151" d="M167.86,-379.76C167.86,-379.76 261.28,-379.76 261.28,-379.76"/>
<polygon fill="#374151" stroke="#374151" points="261.28,-382.56 269.28,-379.76 261.28,-376.96 261.28,-382.56"/>
</g>
<!-- d1 -->
<g id="node5" class="node">
<title>d1</title>
<polygon fill="#ffffff" stroke="#111827" points="577.99,-324.28 473.71,-276.76 577.99,-229.24 682.27,-276.76 577.99,-324.28"/>
<text xml:space="preserve" text-anchor="start" x="535.24" y="-284.36" font-family="Arial" font-weight="bold" font-size="12.00" fill="#111827">Temporary use</text>
<text xml:space="preserve" text-anchor="start" x="534.49" y="-272.36" font-family="Arial" font-size="12.00" fill="#111827">(VUF ≤ 60 days)</text>
<text xml:space="preserve" text-anchor="start" x="536.74" y="-260.36" font-family="Arial" font-size="12.00" fill="#111827">AND UV ≤ 0.5?</text>
</g>
<!-- i1&#45;&gt;d1 -->
<g id="edge2" class="edge">
<title>i1&#45;&gt;d1</title>
<path fill="none" stroke="#374151" d="M331.61,-336.34C331.61,-324.14 331.61,-314.12 331.61,-314.12 331.61,-314.12 545.3,-314.12 545.3,-314.12"/>
<polygon fill="#374151" stroke="#374151" points="545.3,-316.92 553.3,-314.12 545.3,-311.32 545.3,-316.92"/>
</g>
<!-- i2 -->
<g id="node3" class="node">
<title>i2</title>
<path fill="#ffffff" stroke="#111827" d="M173.29,-303.96C173.29,-303.96 65.73,-303.96 65.73,-303.96 59.73,-303.96 51.97,-298.22 50.21,-292.49 50.21,-292.49 23.4,-205.03 23.4,-205.03 21.65,-199.3 25.89,-193.56 31.89,-193.56 31.89,-193.56 139.45,-193.56 139.45,-193.56 145.45,-193.56 153.21,-199.3 154.96,-205.03 154.96,-205.03 181.77,-292.49 181.77,-292.49 183.53,-298.22 179.29,-303.96 173.29,-303.96"/>
<text xml:space="preserve" text-anchor="start" x="71.46" y="-263.26" font-family="Arial" font-size="10.00" fill="#111827">Environmental</text>
<text xml:space="preserve" text-anchor="start" x="68.46" y="-251.26" font-family="Arial" font-size="10.00" fill="#111827">aggressiveness</text>
<text xml:space="preserve" text-anchor="start" x="77.46" y="-239.26" font-family="Arial" font-size="10.00" fill="#111827">(UV: 0 / 0.5</text>
<text xml:space="preserve" text-anchor="start" x="91.34" y="-227.26" font-family="Arial" font-size="10.00" fill="#111827">/ 1.0)</text>
</g>
<!-- i2&#45;&gt;d1 -->
<g id="edge3" class="edge">
<title>i2&#45;&gt;d1</title>
<path fill="none" stroke="#374151" stroke-dasharray="5,2" d="M174.28,-266.6C260.26,-266.6 404.14,-266.6 494.9,-266.6"/>
</g>
<!-- d2 -->
<g id="node6" class="node">
<title>d2</title>
<polygon fill="#ffffff" stroke="#111827" points="886.05,-324.28 729.27,-276.76 886.05,-229.24 1042.83,-276.76 886.05,-324.28"/>
<text xml:space="preserve" text-anchor="start" x="816.3" y="-284.36" font-family="Arial" font-weight="bold" font-size="12.00" fill="#111827">UV ≥ 1.0 (high exposure)</text>
<text xml:space="preserve" text-anchor="start" x="831.67" y="-272.36" font-family="Arial" font-size="12.00" fill="#111827">OR ductility required</text>
<text xml:space="preserve" text-anchor="start" x="841.8" y="-260.36" font-family="Arial" font-size="12.00" fill="#111827">(ε_max ≥ 2.0%)?</text>
</g>
<!-- i2&#45;&gt;d2 -->
<g id="edge6" class="edge">
<title>i2&#45;&gt;d2</title>
<path fill="none" stroke="#374151" stroke-dasharray="5,2" d="M159.07,-217.35C346.87,-217.35 938.61,-217.35 938.61,-217.35 938.61,-217.35 938.61,-230.84 938.61,-244.97"/>
</g>
<!-- n1 -->
<g id="node13" class="node">
<title>n1</title>
<polygon fill="#ffffff" stroke="#111827" points="420.71,-59.52 236.18,-59.52 236.18,0 426.71,0 426.71,-53.52 420.71,-59.52"/>
<polyline fill="none" stroke="#111827" points="420.71,-59.52 420.71,-53.52"/>
<polyline fill="none" stroke="#111827" points="426.71,-53.52 420.71,-53.52"/>
<text xml:space="preserve" text-anchor="start" x="291.32" y="-43.36" font-family="Arial" font-weight="bold" font-size="12.00" fill="#111827">Note: UV = 1.0</text>
<text xml:space="preserve" text-anchor="start" x="265.44" y="-31.36" font-family="Arial" font-size="12.00" fill="#111827">→ error may reach ~28%</text>
<text xml:space="preserve" text-anchor="start" x="244.82" y="-19.36" font-family="Arial" font-size="12.00" fill="#111827">→ consider non&#45;linear correction</text>
<text xml:space="preserve" text-anchor="start" x="288.32" y="-7.36" font-family="Arial" font-size="12.00" fill="#111827">/ local validation</text>
</g>
<!-- i2&#45;&gt;n1 -->
<g id="edge13" class="edge">
<title>i2&#45;&gt;n1</title>
<path fill="none" stroke="#374151" stroke-dasharray="5,2" d="M155.44,-205.45C196.18,-205.45 245.61,-205.45 245.61,-205.45 245.61,-205.45 245.61,-110.2 245.61,-59.96"/>
</g>
<!-- i3 -->
<g id="node4" class="node">
<title>i3</title>
<path fill="#ffffff" stroke="#111827" d="M143.74,-161.96C143.74,-161.96 83.19,-161.96 83.19,-161.96 77.19,-161.96 69.72,-156.14 68.26,-150.32 68.26,-150.32 52.36,-87.2 52.36,-87.2 50.9,-81.38 55.44,-75.56 61.44,-75.56 61.44,-75.56 121.99,-75.56 121.99,-75.56 127.99,-75.56 135.46,-81.38 136.92,-87.2 136.92,-87.2 152.81,-150.32 152.81,-150.32 154.28,-156.14 149.74,-161.96 143.74,-161.96"/>
<text xml:space="preserve" text-anchor="start" x="82.71" y="-127.26" font-family="Arial" font-size="10.00" fill="#111827">Minimum</text>
<text xml:space="preserve" text-anchor="start" x="85.71" y="-115.26" font-family="Arial" font-size="10.00" fill="#111827">ductility</text>
<text xml:space="preserve" text-anchor="start" x="85.34" y="-103.26" font-family="Arial" font-size="10.00" fill="#111827">(ε_max)</text>
</g>
<!-- i3&#45;&gt;d2 -->
<g id="edge7" class="edge">
<title>i3&#45;&gt;d2</title>
<path fill="none" stroke="#374151" stroke-dasharray="5,2" d="M151.69,-143.98C315.59,-143.98 833.61,-143.98 833.61,-143.98 833.61,-143.98 833.61,-205.32 833.61,-244.62"/>
</g>
<!-- d1&#45;&gt;d2 -->
<g id="edge5" class="edge">
<title>d1&#45;&gt;d2</title>
<path fill="none" stroke="#374151" d="M683.14,-276.76C683.14,-276.76 718.09,-276.76 718.09,-276.76"/>
<polygon fill="#374151" stroke="#374151" points="718.1,-279.56 726.09,-276.76 718.09,-273.96 718.1,-279.56"/>
<text xml:space="preserve" text-anchor="middle" x="693.49" y="-266.31" font-family="Arial" font-size="11.00" fill="#374151">No</text>
</g>
<!-- t0 -->
<g id="node7" class="node">
<title>t0</title>
<path fill="#ffffff" stroke="#111827" d="M1237.61,-397.52C1237.61,-397.52 1120.58,-397.52 1120.58,-397.52 1114.58,-397.52 1108.58,-391.52 1108.58,-385.52 1108.58,-385.52 1108.58,-362 1108.58,-362 1108.58,-356 1114.58,-350 1120.58,-350 1120.58,-350 1237.61,-350 1237.61,-350 1243.61,-350 1249.61,-356 1249.61,-362 1249.61,-362 1249.61,-385.52 1249.61,-385.52 1249.61,-391.52 1243.61,-397.52 1237.61,-397.52"/>
<text xml:space="preserve" text-anchor="start" x="1134.84" y="-381.36" font-family="Arial" font-weight="bold" font-size="12.00" fill="#111827">T0 — Untreated</text>
<text xml:space="preserve" text-anchor="start" x="1117.22" y="-369.36" font-family="Arial" font-size="12.00" fill="#111827">Temporary applications</text>
<text xml:space="preserve" text-anchor="start" x="1144.22" y="-357.36" font-family="Arial" font-size="12.00" fill="#111827">(30–60 days)</text>
</g>
<!-- d1&#45;&gt;t0 -->
<g id="edge4" class="edge">
<title>d1&#45;&gt;t0</title>
<path fill="none" stroke="#374151" d="M577.61,-324.41C577.61,-348.94 577.61,-373.76 577.61,-373.76 577.61,-373.76 1098.81,-373.76 1098.81,-373.76"/>
<polygon fill="#374151" stroke="#374151" points="1098.81,-376.56 1106.81,-373.76 1098.81,-370.96 1098.81,-376.56"/>
<text xml:space="preserve" text-anchor="middle" x="804.91" y="-363.31" font-family="Arial" font-size="11.00" fill="#374151">Yes</text>
</g>
<!-- t2 -->
<g id="node8" class="node">
<title>t2</title>
<path fill="#ffffff" stroke="#111827" stroke-width="3" d="M1256.36,-237.52C1256.36,-237.52 1101.83,-237.52 1101.83,-237.52 1095.83,-237.52 1089.83,-231.52 1089.83,-225.52 1089.83,-225.52 1089.83,-202 1089.83,-202 1089.83,-196 1095.83,-190 1101.83,-190 1101.83,-190 1256.36,-190 1256.36,-190 1262.36,-190 1268.36,-196 1268.36,-202 1268.36,-202 1268.36,-225.52 1268.36,-225.52 1268.36,-231.52 1262.36,-237.52 1256.36,-237.52"/>
<text xml:space="preserve" text-anchor="start" x="1135.97" y="-221.36" font-family="Arial" font-weight="bold" font-size="12.00" fill="#111827">T2 — 6% NaOH</text>
<text xml:space="preserve" text-anchor="start" x="1135.59" y="-209.36" font-family="Arial" font-size="12.00" fill="#111827">Balanced option</text>
<text xml:space="preserve" text-anchor="start" x="1098.47" y="-197.36" font-family="Arial" font-size="12.00" fill="#111827">(VUF ~95 days; ε_max ~2.8%)</text>
</g>
<!-- d2&#45;&gt;t2 -->
<g id="edge8" class="edge">
<title>d2&#45;&gt;t2</title>
<path fill="none" stroke="#374151" d="M901.39,-233.38C901.39,-233.38 1078.87,-233.38 1078.87,-233.38"/>
<polygon fill="#374151" stroke="#374151" points="1078.87,-236.18 1086.87,-233.38 1078.87,-230.58 1078.87,-236.18"/>
<text xml:space="preserve" text-anchor="middle" x="998.76" y="-222.93" font-family="Arial" font-size="11.00" fill="#374151">Yes</text>
</g>
<!-- t3 -->
<g id="node9" class="node">
<title>t3</title>
<path fill="#ffffff" stroke="#111827" d="M1233.86,-317.52C1233.86,-317.52 1124.33,-317.52 1124.33,-317.52 1118.33,-317.52 1112.33,-311.52 1112.33,-305.52 1112.33,-305.52 1112.33,-282 1112.33,-282 1112.33,-276 1118.33,-270 1124.33,-270 1124.33,-270 1233.86,-270 1233.86,-270 1239.86,-270 1245.86,-276 1245.86,-282 1245.86,-282 1245.86,-305.52 1245.86,-305.52 1245.86,-311.52 1239.86,-317.52 1233.86,-317.52"/>
<text xml:space="preserve" text-anchor="start" x="1135.97" y="-301.36" font-family="Arial" font-weight="bold" font-size="12.00" fill="#111827">T3 — 9% NaOH</text>
<text xml:space="preserve" text-anchor="start" x="1132.59" y="-289.36" font-family="Arial" font-size="12.00" fill="#111827">Highest durability</text>
<text xml:space="preserve" text-anchor="start" x="1120.97" y="-277.36" font-family="Arial" font-size="12.00" fill="#111827">(stiffer; ε_max &lt; 2.0%)</text>
</g>
<!-- d2&#45;&gt;t3 -->
<g id="edge9" class="edge">
<title>d2&#45;&gt;t3</title>
<path fill="none" stroke="#374151" d="M988.13,-293.76C988.13,-293.76 1102.74,-293.76 1102.74,-293.76"/>
<polygon fill="#374151" stroke="#374151" points="1102.74,-296.56 1110.74,-293.76 1102.74,-290.96 1102.74,-296.56"/>
<text xml:space="preserve" text-anchor="middle" x="1052.56" y="-283.31" font-family="Arial" font-size="11.00" fill="#374151">No</text>
</g>
<!-- r0 -->
<g id="node10" class="node">
<title>r0</title>
<path fill="#ffffff" stroke="#111827" d="M1492,-389.77C1492,-389.77 1353.97,-389.77 1353.97,-389.77 1347.97,-389.77 1341.97,-383.77 1341.97,-377.77 1341.97,-377.77 1341.97,-361.75 1341.97,-361.75 1341.97,-355.75 1347.97,-349.75 1353.97,-349.75 1353.97,-349.75 1492,-349.75 1492,-349.75 1498,-349.75 1504,-355.75 1504,-361.75 1504,-361.75 1504,-377.77 1504,-377.77 1504,-383.77 1498,-389.77 1492,-389.77"/>
<text xml:space="preserve" text-anchor="start" x="1353.98" y="-372.61" font-family="Arial" font-size="12.00" fill="#111827">Temporary erosion control</text>
<text xml:space="preserve" text-anchor="start" x="1350.61" y="-358.36" font-family="Arial" font-size="12.00" fill="#111827">/ revegetation (30–60 days)</text>
</g>
<!-- t0&#45;&gt;r0 -->
<g id="edge10" class="edge">
<title>t0&#45;&gt;r0</title>
<path fill="none" stroke="#374151" d="M1249.96,-369.88C1249.96,-369.88 1332.11,-369.88 1332.11,-369.88"/>
<polygon fill="#374151" stroke="#374151" points="1332.11,-372.69 1340.11,-369.89 1332.11,-367.09 1332.11,-372.69"/>
</g>
<!-- r2 -->
<g id="node11" class="node">
<title>r2</title>
<path fill="#ffffff" stroke="#111827" d="M1498.75,-245.77C1498.75,-245.77 1347.22,-245.77 1347.22,-245.77 1341.22,-245.77 1335.22,-239.77 1335.22,-233.77 1335.22,-233.77 1335.22,-217.75 1335.22,-217.75 1335.22,-211.75 1341.22,-205.75 1347.22,-205.75 1347.22,-205.75 1498.75,-205.75 1498.75,-205.75 1504.75,-205.75 1510.75,-211.75 1510.75,-217.75 1510.75,-217.75 1510.75,-233.77 1510.75,-233.77 1510.75,-239.77 1504.75,-245.77 1498.75,-245.77"/>
<text xml:space="preserve" text-anchor="start" x="1343.86" y="-228.61" font-family="Arial" font-size="12.00" fill="#111827">Tropical slope bioengineering</text>
<text xml:space="preserve" text-anchor="start" x="1361.86" y="-214.36" font-family="Arial" font-size="12.00" fill="#111827">(requires deformability)</text>
</g>
<!-- t2&#45;&gt;r2 -->
<g id="edge11" class="edge">
<title>t2&#45;&gt;r2</title>
<path fill="none" stroke="#374151" d="M1269.56,-221.63C1269.56,-221.63 1325.58,-221.63 1325.58,-221.63"/>
<polygon fill="#374151" stroke="#374151" points="1325.58,-224.44 1333.58,-221.64 1325.58,-218.84 1325.58,-224.44"/>
</g>
<!-- s1 -->
<g id="node14" class="node">
<title>s1</title>
<polygon fill="#ffffff" stroke="#111827" points="1521.25,-173.52 1318.72,-173.52 1318.72,-126 1527.25,-126 1527.25,-167.52 1521.25,-173.52"/>
<polyline fill="none" stroke="#111827" points="1521.25,-173.52 1521.25,-167.52"/>
<polyline fill="none" stroke="#111827" points="1527.25,-167.52 1521.25,-167.52"/>
<text xml:space="preserve" text-anchor="start" x="1330.73" y="-157.36" font-family="Arial" font-weight="bold" font-size="12.00" fill="#111827">Suggested specification targets:</text>
<text xml:space="preserve" text-anchor="start" x="1327.36" y="-145.36" font-family="Arial" font-size="12.00" fill="#111827">R0 ≥ 20 kN/m; FUL ≥ 90 days (P10);</text>
<text xml:space="preserve" text-anchor="start" x="1328.86" y="-133.36" font-family="Arial" font-size="12.00" fill="#111827">CI ≥ 60%; end&#45;of&#45;life: ε_max ≤ 2.0%</text>
</g>
<!-- t2&#45;&gt;s1 -->
<g id="edge14" class="edge">
<title>t2&#45;&gt;s1</title>
<path fill="none" stroke="#374151" stroke-dasharray="5,2" d="M1269.8,-197.88C1298.83,-197.88 1323.61,-197.88 1323.61,-197.88 1323.61,-197.88 1323.61,-185.85 1323.61,-173.82"/>
</g>
<!-- r3 -->
<g id="node12" class="node">
<title>r3</title>
<path fill="#ffffff" stroke="#111827" d="M1505.87,-317.77C1505.87,-317.77 1340.09,-317.77 1340.09,-317.77 1334.09,-317.77 1328.09,-311.77 1328.09,-305.77 1328.09,-305.77 1328.09,-289.75 1328.09,-289.75 1328.09,-283.75 1334.09,-277.75 1340.09,-277.75 1340.09,-277.75 1505.87,-277.75 1505.87,-277.75 1511.87,-277.75 1517.87,-283.75 1517.87,-289.75 1517.87,-289.75 1517.87,-305.77 1517.87,-305.77 1517.87,-311.77 1511.87,-317.77 1505.87,-317.77"/>
<text xml:space="preserve" text-anchor="start" x="1336.73" y="-300.61" font-family="Arial" font-size="12.00" fill="#111827">Rigid reinforcement/containment</text>
<text xml:space="preserve" text-anchor="start" x="1359.23" y="-286.36" font-family="Arial" font-size="12.00" fill="#111827">(deformation not critical)</text>
</g>
<!-- t3&#45;&gt;r3 -->
<g id="edge12" class="edge">
<title>t3&#45;&gt;r3</title>
<path fill="none" stroke="#374151" d="M1246.06,-297.63C1246.06,-297.63 1318.33,-297.63 1318.33,-297.63"/>
<polygon fill="#374151" stroke="#374151" points="1318.33,-300.44 1326.33,-297.64 1318.33,-294.84 1318.33,-300.44"/>
</g>
</g>
</svg>
